<svg xmlns="http://www.w3.org/2000/svg" xmlns:xlink="http://www.w3.org/1999/xlink" viewBox="0 0 384 64">
    <defs>
      <path id="a" d="M0 .834h38.063V54H0z"/>
      <path id="c" d="M.846 0h42.651v55.753H.846z"/>
    </defs>
    <g transform="translate(0 10)">
      <mask id="b" fill="#fff">
        <use xlink:href="#a"/>
      </mask>
      <path fill="#EC2D85" d="M.079 16.736C2.627 4.59 16.869-3.092 27.66 2.928c10.908 6.087 12.522 19.685 8.142 29.087-4.087 8.774-14.44 14.591-24.312 10.625 7.43 2.512 16.269-1.363 20.149-9.303 4.625-9.467 2.388-21.402-6.276-26.438C16.699 1.863 5.427 5.63.802 15.094c-.232.473-.444.948-.635 1.422l-.088.22zM7.41 40.467c.608.463 1.239.868 1.887 1.218C5.585 44.255 2.485 48.36 0 54c.219-6.96.298-14.475.238-22.543 1.47 3.452 3.937 6.552 7.173 9.01z" mask="url(#b)"/>
    </g>
    <path fill="#6D3C97" d="M4.487 14.18c6.8-10.812 23.202-11.48 32.65-2.068 9.448 9.41 8.03 24.178 1.44 32.9-6.842 9.347-18.1 12.54-27.107 7.625 7.915 2.975 16.928.355 22.331-7.378 6.857-9.81 5.151-24.671-2.892-31.803-7.328-6.498-19.625-5.987-26.938 1.578.167-.288.34-.573.516-.854"/>
    <g transform="translate(7)">
      <mask id="d" fill="#fff">
        <use xlink:href="#c"/>
      </mask>
      <path fill="#F06044" d="M1.514 6.683c6.85-7.48 24.418-10.511 34.378.724 9.961 11.236 9.961 27.167 1.03 39.1-7.797 10.42-24.663 11.337-32.31 6.206a19.09 19.09 0 006.287 1.773c7.162.733 14.87-2.305 20.148-8.835 8.76-10.839 7.128-27.163-1.027-35.449C21.863 1.915 10.315.82 1.34 7.105c-.167.119-.333.237-.495.36.217-.27.44-.532.669-.782" mask="url(#d)"/>
    </g>
    <path fill="#585858" d="M72.573 53.074V40.155c2.75 3.294 5.969 4.941 9.655 4.941 3.385 0 6.286-1.254 8.704-3.762 2.418-2.509 3.626-5.516 3.626-9.021 0-3.506-1.223-6.505-3.671-8.998-2.448-2.494-5.364-3.74-8.75-3.74-3.928 0-7.116 1.677-9.564 5.032v-4.398H69.49v32.865h3.083zm9.315-10.834c-2.614 0-4.857-.944-6.731-2.833-1.874-1.889-2.81-4.223-2.81-7.004 0-2.78.914-5.114 2.742-7.003 1.828-1.889 4.087-2.833 6.777-2.833 2.69 0 4.964.96 6.822 2.878 1.859 1.92 2.788 4.223 2.788 6.913 0 2.75-.944 5.085-2.833 7.004-1.889 1.919-4.14 2.878-6.755 2.878zm20.467 2.04v-8.16c0-4.019.197-6.792.59-8.318.393-1.526 1.005-2.772 1.836-3.74.83-.967 1.715-1.45 2.651-1.45a2.7 2.7 0 011.406.408l1.632-2.63c-.998-.543-1.987-.815-2.97-.815-.982 0-1.873.332-2.674.997-.8.665-1.624 1.708-2.47 3.128v-3.49h-3.174v24.07h3.173zm23.074.816c3.536 0 6.505-1.246 8.907-3.74 2.403-2.493 3.604-5.492 3.604-8.998 0-3.505-1.216-6.512-3.649-9.02-2.433-2.509-5.394-3.763-8.885-3.763-3.49 0-6.452 1.254-8.885 3.762-2.432 2.509-3.649 5.53-3.649 9.066 0 3.476 1.209 6.46 3.627 8.953 2.417 2.494 5.394 3.74 8.93 3.74zm-.068-2.946c-2.644 0-4.858-.937-6.641-2.81-1.783-1.875-2.675-4.156-2.675-6.846 0-2.69.922-5.009 2.766-6.958 1.843-1.95 4.042-2.924 6.595-2.924 2.554 0 4.76.975 6.618 2.924 1.859 1.949 2.788 4.253 2.788 6.913 0 2.69-.914 4.979-2.742 6.867-1.829 1.89-4.065 2.834-6.71 2.834zm25 2.946c.725 0 1.722-.106 2.992-.317v-2.63h-1.859c-.876 0-1.42-.075-1.632-.226-.211-.151-.317-.635-.317-1.45V22.838h4.896v-2.63h-4.896v-9.292h-3.128v9.292h-4.261v2.63h4.261V40.97c0 1.42.317 2.463.952 3.128s1.632.997 2.992.997zm20.081 0c5.077 0 8.916-2.418 11.514-7.253l-2.629-1.36c-2.024 3.838-5.077 5.757-9.157 5.757-2.478 0-4.586-.884-6.323-2.652-1.738-1.768-2.652-4.102-2.743-7.003h21.668c-.09-4.02-1.322-7.193-3.694-9.52s-5.304-3.49-8.794-3.49-6.422 1.254-8.794 3.762c-2.373 2.509-3.559 5.516-3.559 9.021 0 3.506 1.179 6.505 3.536 8.998 2.357 2.494 5.349 3.74 8.975 3.74zm8.885-15.186h-17.905c1.39-4.895 4.351-7.343 8.884-7.343 2.207 0 4.156.65 5.848 1.949 1.692 1.3 2.75 3.097 3.173 5.394zm20.717 15.186c3.535 0 6.678-1.647 9.428-4.941v4.125h3.038V20.21h-3.038v4.397c-2.448-3.355-5.636-5.032-9.564-5.032-3.415 0-6.347 1.246-8.795 3.74-2.448 2.493-3.671 5.485-3.671 8.975 0 3.49 1.216 6.498 3.649 9.021 2.432 2.523 5.417 3.785 8.953 3.785zm.068-2.856c-2.615 0-4.858-.974-6.732-2.924-1.874-1.949-2.81-4.253-2.81-6.913 0-2.659.921-4.963 2.765-6.913 1.843-1.949 4.102-2.923 6.777-2.923 2.674 0 4.933.944 6.776 2.833 1.844 1.889 2.766 4.208 2.766 6.958 0 2.84-.937 5.198-2.81 7.072-1.875 1.873-4.118 2.81-6.732 2.81zm22.506 2.04v-8.84c0-3.293.136-5.484.408-6.572.272-1.088.801-2.146 1.587-3.174a8.382 8.382 0 012.856-2.402c1.118-.574 2.259-.861 3.422-.861 1.164 0 2.153.181 2.97.544a5.086 5.086 0 012.017 1.586c.528.695.921 1.541 1.178 2.539.257.997.386 2.9.386 5.711v11.47h3.082V31.904c0-3.083-.302-5.417-.907-7.004-.604-1.586-1.632-2.87-3.082-3.853-1.45-.982-3.083-1.473-4.896-1.473-3.536 0-6.543 1.647-9.02 4.94V20.21h-3.129v24.07h3.128zm40.707.816c2.055 0 3.786-.695 5.19-2.085 1.406-1.39 2.109-3.098 2.109-5.123 0-1.601-.476-2.954-1.428-4.057-.952-1.103-2.335-2.13-4.148-3.082-1.813-.952-3.09-1.768-3.83-2.448-.74-.68-1.111-1.496-1.111-2.448s.348-1.753 1.043-2.402c.695-.65 1.556-.975 2.583-.975 1.572 0 3.189.8 4.85 2.403l1.995-2.04c-2.206-2.176-4.344-3.264-6.414-3.264-2.07 0-3.732.604-4.986 1.813-1.254 1.209-1.882 2.667-1.882 4.374 0 1.708.446 3.098 1.338 4.17.891 1.074 2.236 2.063 4.034 2.97 1.798.907 3.083 1.715 3.853 2.425.77.71 1.156 1.617 1.156 2.72 0 1.103-.438 2.063-1.314 2.879-.877.816-1.934 1.224-3.174 1.224-1.752 0-3.43-.892-5.031-2.675l-1.95 2.176a9.164 9.164 0 003.196 2.538 8.926 8.926 0 003.921.907zm19.402 0c.725 0 1.723-.106 2.992-.317v-2.63h-1.859c-.876 0-1.42-.075-1.632-.226-.211-.151-.317-.635-.317-1.45V22.838h4.896v-2.63h-4.896v-9.292h-3.128v9.292h-4.26v2.63h4.26V40.97c0 1.42.318 2.463.952 3.128.635.665 1.632.997 2.992.997zm17.453-.181c3.535 0 6.542-1.647 9.02-4.941v4.306h3.128V20.21H309.2v8.839c0 3.294-.136 5.485-.408 6.573-.272 1.088-.8 2.146-1.586 3.173a8.382 8.382 0 01-2.856 2.403c-1.118.574-2.259.86-3.423.86-1.163 0-2.153-.18-2.969-.543a5.086 5.086 0 01-2.017-1.587c-.529-.695-.922-1.54-1.179-2.538-.256-.997-.385-2.901-.385-5.712V20.21h-3.082v12.376c0 3.082.302 5.417.906 7.003.605 1.587 1.632 2.871 3.083 3.854 1.45.982 3.082 1.473 4.896 1.473zm30.802.181c3.55 0 6.701-1.647 9.451-4.941v4.125h3.038V10.917h-3.038v13.69c-2.448-3.355-5.636-5.032-9.564-5.032-3.415 0-6.347 1.246-8.795 3.74-2.448 2.493-3.671 5.492-3.671 8.998 0 3.505 1.208 6.512 3.626 9.02 2.418 2.509 5.402 3.763 8.953 3.763zm0-2.856c-2.554 0-4.767-.982-6.641-2.946-1.874-1.965-2.81-4.269-2.81-6.913 0-2.645.914-4.941 2.742-6.89 1.828-1.95 4.102-2.924 6.822-2.924 2.72 0 4.987.952 6.8 2.855 1.813 1.904 2.72 4.231 2.72 6.981 0 2.841-.967 5.19-2.901 7.05-1.935 1.858-4.178 2.787-6.732 2.787zm20.852-26.201c.71 0 1.315-.25 1.813-.748a2.47 2.47 0 00.748-1.813c0-.71-.249-1.315-.748-1.813a2.47 2.47 0 00-1.813-.748 2.43 2.43 0 00-1.813.77c-.499.514-.748 1.118-.748 1.813 0 .665.25 1.255.748 1.768a2.431 2.431 0 001.813.771zm1.564 28.241V20.21h-3.128v24.07h3.128zm18.042.816c3.536 0 6.505-1.246 8.907-3.74 2.403-2.493 3.604-5.492 3.604-8.998 0-3.505-1.216-6.512-3.65-9.02-2.432-2.509-5.393-3.763-8.884-3.763-3.49 0-6.452 1.254-8.885 3.762-2.433 2.509-3.649 5.53-3.649 9.066 0 3.476 1.209 6.46 3.627 8.953 2.417 2.494 5.394 3.74 8.93 3.74zm-.068-2.946c-2.645 0-4.858-.937-6.641-2.81-1.783-1.875-2.675-4.156-2.675-6.846 0-2.69.922-5.009 2.765-6.958 1.844-1.95 4.042-2.924 6.596-2.924 2.554 0 4.76.975 6.618 2.924 1.859 1.949 2.788 4.253 2.788 6.913 0 2.69-.914 4.979-2.742 6.867-1.829 1.89-4.065 2.834-6.71 2.834z"/>
  </svg>
  