<svg xmlns="http://www.w3.org/2000/svg" viewBox="0 0 246 311">
    <g fill="none" fill-rule="evenodd">
      <path fill="#F72585" d="M36.842 245.177a70.502 70.502 0 009.162 5.909C27.975 263.558 12.93 283.488.864 310.872l.141-4.624.132-4.658.124-4.69.116-4.725.054-2.375.103-4.774c.016-.799.033-1.599.048-2.4l.09-4.825.082-4.857.038-2.442.07-4.908.031-2.466.057-4.958.025-2.492.044-5.008.02-2.517.03-5.058c.005-.846.01-1.693.013-2.541l.02-5.109.012-7.725-.002-5.191-.01-5.225-.019-5.259-.044-7.95-.019-2.667c7.14 16.763 19.111 31.816 34.822 43.749zM1.248 129.967c12.368-58.97 81.514-96.264 133.903-67.033 52.958 29.549 60.796 95.56 39.529 141.21-19.842 42.592-70.096 70.836-118.027 51.58 36.067 12.196 78.98-6.616 97.815-45.168C176.922 164.598 166.066 106.657 124 82.207c-42.066-24.45-96.793-6.172-119.246 39.787-1.123 2.298-2.149 4.6-3.081 6.906l-.425 1.067z"/>
      <path fill="#7209B7" d="M22.65 69.005c33.006-52.487 112.64-55.726 158.508-10.04 45.41 45.23 39.109 115.95 7.94 158.447l-.952 1.279c-33.214 45.374-87.869 60.883-131.593 37.015 38.425 14.44 82.179 1.72 108.413-35.819 33.283-47.626 25.002-119.773-14.043-154.394-35.58-31.548-95.278-29.068-130.78 7.656a138.488 138.488 0 012.508-4.144z"/>
      <path fill="#FF5F40" d="M42.193 32.61C75.453-3.709 160.741-18.42 209.1 36.126c48.357 54.547 48.357 131.885 5.002 189.82-37.86 50.591-119.74 55.042-156.866 30.127a92.55 92.55 0 0030.52 8.61c34.772 3.557 72.195-11.194 97.817-42.895 42.526-52.616 34.612-131.867-4.987-172.094C140.985 9.468 84.92 4.149 41.358 34.658a91.103 91.103 0 00-2.405 1.743 73.644 73.644 0 013.24-3.792z"/>
    </g>
  </svg>
  